HIERARCHY
ROOT Hips
{
   OFFSET 0.00000 0.00000 0.00000
   CHANNELS 6 Xposition Yposition Zposition Zrotation Xrotation Yrotation
   JOINT RightUpLeg
   {
      OFFSET -11.629540 -11.267191 0.132148
      CHANNELS 3 Zrotation Xrotation Yrotation
      JOINT RightLeg
      {
         OFFSET 0.000000 -57.749504 1.784510
         CHANNELS 3 Zrotation Xrotation Yrotation
         JOINT RightFoot
         {
            OFFSET 0.329614 -54.720115 -1.898767
            CHANNELS 3 Zrotation Xrotation Yrotation
            JOINT RightToes
            {
               OFFSET 0.052000 -5.739617 11.048829
               CHANNELS 3 Zrotation Xrotation Yrotation
               End Site
               {
                  OFFSET -0.104000 -0.178682 12.713727
               }
            }
         }
      }
   }
   JOINT Spine
   {
      OFFSET 0.000000 15.457650 0.000000
      CHANNELS 3 Zrotation Xrotation Yrotation
      JOINT Spine1
      {
         OFFSET 0.000000 33.354620 0.165962
         CHANNELS 3 Zrotation Xrotation Yrotation
         JOINT HEad
         {
            OFFSET 0.000000 11.354408 0.014743
            CHANNELS 3 Zrotation Xrotation Yrotation
            End Site
            {
               OFFSET -0.377000 16.606459 3.268135
            }
         }
         JOINT LeftShoulder1
         {
            OFFSET 11.687000 -0.470928 -0.286000
            CHANNELS 3 Zrotation Xrotation Yrotation
            JOINT LeftArm
            {
               OFFSET 13.367510 -0.004394 0.418760
               CHANNELS 3 Zrotation Xrotation Yrotation
               JOINT LeftForeArm
               {
                  OFFSET 42.596969 0.128887 -1.851642
                  CHANNELS 3 Zrotation Xrotation Yrotation
                  JOINT LeftHand
                  {
                     OFFSET 35.833589 0.110971 1.328808
                     CHANNELS 3 Zrotation Xrotation Yrotation
                     End Site
                     {
                        OFFSET 21.767590 -0.780000 1.953783
                     }
                  }
               }
            }
         }
         JOINT RightShoulder
         {
            OFFSET -11.687000 -0.470928 -0.286000
            CHANNELS 3 Zrotation Xrotation Yrotation
            JOINT RightArm
            {
               OFFSET -13.367510 -0.004394 0.418760
               CHANNELS 3 Zrotation Xrotation Yrotation
               JOINT RightForeArm
               {
                  OFFSET -42.766227 0.128887 -1.851642
                  CHANNELS 3 Zrotation Xrotation Yrotation
                  JOINT RightHand
                  {
                     OFFSET -35.739729 0.110971 1.328808
                     CHANNELS 3 Zrotation Xrotation Yrotation
                     End Site
                     {
                        OFFSET -21.620562 -0.780000 1.953783
                     }
                  }
               }
            }
         }
      }
   }
   JOINT LeftUpLeg
   {
      OFFSET 11.629540 -11.267191 0.132148
      CHANNELS 3 Zrotation Xrotation Yrotation
      JOINT LeftLeg
      {
         OFFSET 0.000000 -57.749504 1.784510
         CHANNELS 3 Zrotation Xrotation Yrotation
         JOINT LeftFoot
         {
            OFFSET -0.329614 -54.720115 -1.898767
            CHANNELS 3 Zrotation Xrotation Yrotation
            JOINT LeftToes
            {
               OFFSET -0.052000 -5.739617 11.048829
               CHANNELS 3 Zrotation Xrotation Yrotation
               End Site
               {
                  OFFSET 0.104000 -0.061682 12.713727
               }
            }
         }
      }
   }
}
MOTION
Frames: 15
Frame Time: 0.016667
-114.844263 99.111374 272.128826 -20.652598 18.904867 -43.742003 27.390028 -23.943295 52.046520 40.991797 24.301185 13.529244 -80.431208 54.271044 26.199356 45.421854 -51.374033 -30.898570 59.052033 -37.130476 149.128397 36.716467 -0.444681 -92.162768 44.148601 46.335095 28.460365 28.153136 64.683032 -70.099256 -135.044287 93.279388 -167.763093 -31.060500 188.584815 -61.137365 -84.203289 -45.102065 -75.018010 29.027867 144.361649 21.172046 36.302254 37.413235 268.624838 -8.960116 130.830238 64.796106 2.090874 6.951249 26.669831 46.865606 -40.071122 65.335622 21.662380 20.371582 57.881940 -72.369768 42.951870 -2.826654 22.601193 48.414488 -73.414275
-112.707318 99.268721 271.173931 -19.856345 17.227926 -43.081077 26.606102 -24.088250 54.347494 40.251176 24.478624 16.699256 -80.435791 60.669777 26.265441 45.842065 -51.009728 -30.567866 57.452689 -33.891645 150.565195 36.940894 -2.014705 -93.356542 44.744911 43.210703 28.011152 27.984398 61.990278 -71.340773 -135.216353 97.198960 -166.902161 -27.254056 189.199532 -62.271306 -84.662954 -45.791777 -72.470377 16.028980 126.287725 34.498654 35.451725 46.836793 257.943733 -7.649207 136.671812 65.061944 -6.324957 1.194523 34.749902 44.893522 -40.753874 67.476716 20.905414 21.756523 55.150045 -70.989127 42.900756 -4.242005 22.609646 46.129117 -74.042399
-110.528601 99.696320 270.288883 -20.306226 15.517071 -43.347970 26.486068 -22.930087 56.423902 39.582801 24.480849 19.153223 -80.530983 66.072450 26.343684 46.295196 -50.660131 -29.612599 53.974952 -30.296011 149.915399 40.103179 -3.546633 -93.939116 44.820675 40.384665 27.738308 27.934125 58.263132 -70.556134 -135.908634 101.866561 -166.713129 -24.117471 190.108248 -64.411191 -85.340734 -46.257320 -70.625857 3.617600 113.969356 49.478689 38.604277 53.979340 251.024888 -7.044779 143.725581 64.044826 0.074794 4.522340 26.972417 43.616314 -39.402600 69.973587 20.127085 23.376980 53.024067 -68.803221 42.583805 -5.420722 22.229551 43.279921 -74.256963
-108.309239 100.304898 269.436413 -20.050235 13.413543 -43.981654 25.526358 -21.835466 58.119036 38.234549 25.132105 21.832274 -81.693099 69.747187 25.025304 46.766746 -51.033531 -28.531976 51.577969 -26.850054 149.235412 42.458894 -4.777726 -94.468415 44.525853 37.130927 27.756565 28.961505 55.241781 -69.089911 -137.686437 106.998759 -165.820887 -20.975753 192.810694 -67.166202 -85.840281 -46.528208 -69.386177 -9.672729 102.739883 64.156274 41.622398 60.264767 249.014764 -6.947248 147.624772 63.566576 -3.838667 2.602562 31.144645 41.982827 -37.401983 72.447694 18.968281 25.091484 50.627357 -66.629984 42.395346 -6.549594 22.072846 40.323115 -74.174734
-105.943602 101.344384 268.470798 -21.731058 11.986945 -45.456767 26.021641 -21.702532 60.441416 37.659064 26.902232 25.356377 -66.897905 68.693036 17.592334 46.451936 -54.026113 -27.652779 47.587209 -23.710513 148.044432 46.457857 -5.095827 -95.164664 44.109833 33.244395 28.079174 32.812645 53.356564 -69.305205 -139.126582 113.132139 -162.145809 -26.433747 196.335645 -68.186243 -84.002926 -41.516280 -68.445961 -23.241833 94.467301 77.915492 44.498706 64.784795 249.105468 -6.840705 149.631399 63.190595 -0.274324 3.672962 26.249983 41.818182 -33.778226 74.627145 18.103112 25.884182 48.666467 -64.479923 41.882580 -7.826764 21.808289 36.778451 -73.844167
-103.434132 102.119053 267.421013 -24.568771 10.171111 -46.062939 27.506159 -20.256253 61.816866 37.790740 29.583892 27.125478 -64.839191 67.201009 11.159275 46.513923 -57.493712 -27.566517 46.111724 -22.528250 146.090848 51.841505 -6.483346 -94.570833 43.425376 27.155913 28.926029 42.614168 55.541223 -70.935428 -141.413043 118.930969 -156.271819 -34.970538 201.367282 -68.658195 -91.288026 -48.881290 -70.558012 -36.990054 85.681745 90.246941 47.125327 66.203091 251.110621 -8.941218 150.135249 60.510449 -3.572105 2.102421 27.562697 42.109882 -28.839459 76.908606 16.365948 27.217127 46.181617 -62.013535 40.989744 -9.081408 21.873242 33.217133 -73.309274
-100.896853 102.883595 266.384140 -24.502332 8.661326 -47.349467 26.568780 -19.931885 63.999842 36.094671 29.260042 28.467395 -58.661121 67.800542 6.818350 46.582693 -59.280373 -26.848430 41.955721 -18.301835 142.577849 55.184052 -7.505786 -96.841236 42.605955 20.355074 30.109547 48.063495 55.535056 -76.382811 -144.914375 132.430073 -146.962899 -31.430413 206.211676 -70.186300 -82.499109 -32.586962 -62.344901 -48.799673 75.845542 101.260184 47.397278 64.562964 254.722042 -7.935843 146.468366 62.725152 -2.776186 0.862065 26.518177 42.325043 -27.603135 80.214254 15.748575 31.017002 44.207546 -60.907461 38.225509 -10.468274 21.127133 27.873041 -72.888944
-98.231524 103.627003 265.276028 -24.684693 6.869158 -49.053934 25.312756 -18.042636 65.989258 34.172488 28.048326 30.039445 -58.536408 70.598160 5.501720 47.089469 -59.193254 -26.242528 36.844137 -13.158108 138.896883 60.123020 -8.205591 -97.690543 39.182060 18.636591 31.449767 57.862631 53.531167 -82.514163 -148.180831 147.933196 -137.030206 -19.798464 212.541895 -73.016211 -98.385173 -55.046141 -64.810654 -61.842493 64.446947 108.726243 46.793527 60.323083 260.987211 -7.016552 140.075719 65.421457 -5.481301 -1.613365 31.220651 41.972397 -25.479076 82.616349 16.533004 33.462415 42.028913 -59.248776 36.924785 -10.378395 20.727343 23.120872 -72.464072
-95.598782 104.386700 264.186722 -25.659680 4.920729 -51.312360 24.570957 -16.190149 68.609462 32.577861 28.241441 33.154660 -55.358840 73.349832 4.794130 47.001810 -58.463851 -24.947070 33.951398 -7.309203 135.571045 65.760009 -8.994101 -98.005449 36.145610 15.283484 33.276842 71.745536 51.185684 -90.609208 -152.432187 164.858213 -130.516855 -12.087152 216.080616 -71.251741 -86.183457 -44.257133 -64.243967 -74.351568 53.050137 112.860318 48.995792 53.822960 267.470946 -6.693955 132.500561 66.890133 -4.845353 -2.951582 31.687672 41.325762 -23.979286 84.042131 20.162425 35.103969 40.358153 -58.027177 35.231608 -9.543961 20.075695 18.135158 -72.259201
-92.972411 105.196598 263.241402 -26.317088 1.804727 -55.372986 23.653201 -12.785761 70.980692 30.547567 31.610525 36.988428 -56.973791 75.752330 4.507495 47.036193 -56.523975 -23.779594 35.151934 -1.126713 132.401810 68.382433 -8.146533 -97.751065 32.261944 9.355760 37.289483 87.466610 47.279843 -99.368898 -152.364622 181.708932 -126.058709 -5.821824 220.433345 -68.229840 -93.959224 -49.763532 -63.492974 -87.535247 43.187324 115.731053 54.144839 49.472259 274.449350 -8.312552 122.980397 67.018854 -4.704687 -4.904657 37.656257 40.312275 -22.322286 83.784496 25.339607 38.554034 40.485496 -56.481744 34.141438 -7.264024 19.288943 13.059231 -72.290668
-90.359849 105.995072 262.364651 -26.585089 -0.777864 -59.703489 21.070031 -9.406847 72.896840 26.287942 30.732303 42.185181 -55.430482 77.418295 3.718084 46.536254 -55.939219 -22.240254 34.325454 5.019354 126.899396 69.649338 -5.041711 -100.420187 28.706964 1.097518 43.014868 103.817448 44.652140 -109.629379 -151.774931 196.571396 -122.762678 0.669728 223.958898 -61.917550 -83.775876 -44.321231 -68.256177 -98.890375 33.461148 119.086752 60.508550 45.655792 277.833271 -7.681784 112.433458 65.497320 -4.541056 -0.929272 24.524561 37.762770 -19.116443 83.730483 26.324389 38.486675 41.755853 -55.690320 32.639032 -5.518851 18.530387 8.175541 -72.872415
-87.848204 106.615351 261.619945 -27.512523 -2.295150 -62.686827 18.543788 -5.174404 72.886041 21.077308 28.917470 48.499995 -53.141819 78.706121 3.191620 46.863929 -53.741988 -21.384837 32.174217 10.835275 121.653551 70.174791 -0.780895 -101.202845 25.301116 -6.310985 49.642040 119.405435 42.425266 -116.224002 -147.551497 211.091149 -117.088895 5.226257 227.042441 -57.893004 -87.193478 -47.336728 -69.350879 -111.040250 23.464963 120.718580 65.579269 44.120556 284.131143 -7.938784 99.069456 64.282380 -6.405549 -7.559944 39.008955 33.794034 -14.586219 82.470518 28.110617 35.127041 40.514479 -46.195756 29.278381 -5.456733 17.553581 2.611363 -74.895647
-85.251902 107.582339 260.851341 -27.863811 -3.034834 -66.004865 17.577603 -2.710313 71.083459 16.568714 28.690138 53.817137 -56.699210 80.268069 3.104898 48.127391 -51.530420 -22.289865 28.600545 16.798936 118.129269 69.880485 2.463537 -100.579160 21.444518 -12.986376 56.686571 132.114751 38.243991 -118.100282 -141.279321 227.538887 -109.432273 7.535281 227.535007 -55.768747 -81.446003 -43.238403 -71.912036 -124.843673 12.948148 121.024354 71.158885 40.796218 296.215278 -6.478694 86.035262 65.737272 -5.536500 3.015724 18.062992 31.817784 -11.418822 83.289492 29.182390 33.905845 40.947247 -35.705975 25.957314 -5.038481 16.693681 -2.781805 -76.890213
-82.579488 108.764818 260.012814 -28.816469 -3.434778 -69.490973 16.149183 -0.725405 67.742089 13.897282 26.705324 59.921024 -58.689363 82.650671 3.249984 49.605635 -49.957090 -24.150898 22.543406 21.789658 115.580475 72.409526 4.190585 -95.712650 16.668163 -19.384832 64.163227 145.314706 33.942495 -116.718562 -131.055908 243.057391 -98.058895 8.229973 227.783175 -55.482733 -84.004503 -43.851519 -71.819951 -134.243912 5.287196 119.611912 80.260761 47.937799 309.204658 -6.453781 78.125548 67.100864 -2.470915 -2.080177 31.742297 32.304613 -7.479907 84.954303 34.628390 36.624359 37.660061 -42.618775 28.952018 -1.742307 17.531320 -5.180225 -78.178830
-80.008506 109.499405 259.103867 -27.562921 -1.454085 -72.494535 16.467079 -2.184425 66.239427 12.649455 24.251061 64.878464 -51.797525 84.163701 3.168591 50.431730 -48.274165 -25.309507 18.111908 27.815688 114.716620 74.621312 8.245870 -91.933971 13.173043 -22.293859 69.465974 153.855639 32.851352 -111.036213 -120.984329 256.902512 -82.382019 7.645231 225.212169 -59.087700 -81.769747 -39.581342 -73.697891 -142.445917 -4.093271 124.145204 86.844503 50.773307 323.220206 -10.407459 65.288692 69.719859 -8.684909 -2.359349 26.870526 33.235315 -3.976135 83.493462 35.020204 35.430496 32.150926 -48.645717 36.568730 0.409041 20.271771 -4.943214 -81.438681
